<svg xmlns="http://www.w3.org/2000/svg" width="22" height="32" viewBox="0 0 22 32"><g><g><g opacity=".11"><path d="M11 26.084c4.024 0 7.285 1.325 7.285 2.958C18.285 30.676 15.024 32 11 32s-7.286-1.324-7.286-2.958c0-1.633 3.262-2.958 7.286-2.958z"/></g><g><path fill="#0a0a0a" d="M21.973 11.115C21.973 4.975 17.054 0 10.986 0 5.004 0 .146 4.84.012 10.86c-.004-.002-.01-.002-.013-.002-.002.054.006.11.005.164 0 .03-.005.061-.005.092 0 .11.014.217.017.326.123 7.223 8.193 14.843 10.97 17.556 7.8-6.398 10.072-12.333 10.728-15.497a13.604 13.604 0 0 0 .203-1.24v-.01c.082-.732.056-1.135.056-1.135z"/></g><g><path fill="#d7d7d7" d="M10.984 6.492c2.6 0 4.707 2.034 4.707 4.544s-2.108 4.544-4.707 4.544c-2.6 0-4.708-2.034-4.708-4.544s2.108-4.544 4.708-4.544z"/></g></g></g></svg>